<svg xmlns="http://www.w3.org/2000/svg" height="800" width="1200" viewBox="-247.7736 -84.04375 2147.3712 504.2625"><path fill="#fff" d="M1425.054 105.037h226.77v226.771h-226.77z"/><path d="M1518.37 241.44c-.167-5.569 3.5-11.48 12.662-17.54l19.567 26.023a21.265 21.265 0 01-14.425 5.427c-10.44 0-17.538-5.427-17.803-13.91zm25.763-53.947c0-4.613-3.238-7.572-8.373-7.572-4.98 0-8.514 3.276-8.514 7.727 0 4.3 1.285 6.642 7.228 14.28 7.049-5.093 9.659-9.828 9.659-14.435zm-115.354-78.732H1648.1v219.322h-219.323zm153.007 74.093h16.515v86.71l20.62-.007V166.312h-37.138zm-82.213 59.1c1.35 18.878 15.723 29.48 36.6 29.6 10.665.064 17.267-2.184 24.786-8.212l4.6 6.2h20.4l-13.19-17.5c6.266-7.953 8.307-16.19 8.307-29.235 0-.788-.22-4.006-.22-6.228h-16.575c.16 2.54.335 4.865.368 5.66.264 6.68-1.021 14.904-2.507 16.248l-17.841-24.2c12.047-10.022 15.96-17.109 15.96-26.645 0-13.044-10.121-22.56-24.41-22.56-15.42 0-26.3 9.354-26.3 22.082 0 7.475 1.91 11.6 11.226 23.53-14.476 8.353-22.018 19.97-21.204 31.263zm-49.843-59.1h16.517v86.71l20.626-.007V166.312h-37.143zm-207.08 80.801v6.9h-10.5V167.512l10.5-5.249v39.15c4.95-5.4 12.9-9.3 20.4-9.3 19.2 0 31.649 14.85 31.649 40.047 0 25.95-11.55 40.2-30.75 40.2-10.8-.005-16.349-4.505-21.3-8.705zm41.1-31.5c0-19.649-7.2-30.6-21.45-30.6-9.45 0-16.8 6.75-19.65 11.7v37.65c4.2 7.2 12 12 19.65 12 14.4 0 21.448-11.849 21.448-30.749zm47.25 36l-28.05-74.243h10.65l19.35 54.447c.9 2.551 1.65 5.1 2.55 7.8l2.7-7.8 19.65-54.447h11.25l-39.149 105.746h-10.35zm-265.426 68.015a84.71 84.71 0 01-16.99-1.718 88 88 0 01-58.06-41.465l-.315-.58c-6.285-12.565-2.151-27.345 9.605-34.4a25.152 25.152 0 0112.92-3.573 25.589 25.589 0 0122.253 13.068c.259.46.556.956.866 1.434l2.706 3.682 3.637 3.676a35.477 35.477 0 0016.588 8.023 36.487 36.487 0 0028.6-6.537 34.614 34.614 0 0014.36-25.87 35.747 35.747 0 00-9.942-27.765s-76.832-79.8-80.279-83.5a94.175 94.175 0 01-9.265-11c-10.84-15.365-14.23-33.48-12.557-51.412a83.4 83.4 0 0110.82-35.534s3.52-5.953 4.555-7.465c4.07-5.936 12.08-13.612 17.57-17.9a90.371 90.371 0 0114.744-8.856 84.035 84.035 0 01109.6 33.824 24.914 24.914 0 012.654 19.308 25.451 25.451 0 01-12.144 15.677 24.414 24.414 0 01-12.455 3.385 25.379 25.379 0 01-22.1-13 33.4 33.4 0 00-22.364-15.806 34.631 34.631 0 00-27.117 6.1 33.05 33.05 0 00-12.829 23.92 33.616 33.616 0 009.153 25.935l78.55 81a87.834 87.834 0 0124.36 66.922c-2.236 25.186-14.755 48.008-34.36 62.7a88.507 88.507 0 01-52.762 17.732m-248.6-.033a84.584 84.584 0 0084.48-84.492V84.54a84.483 84.483 0 00-168.966 0v167.105a84.585 84.585 0 0084.486 84.492m0-285.064c18.145 0 33.473 15.322 33.473 33.467v167.105a33.514 33.514 0 01-33.472 33.474 33.118 33.118 0 01-33.476-33.474V84.54a33.511 33.511 0 0133.48-33.467m-379.423 15.49v244.05a25.503 25.503 0 0051.005 0v-138.2zm138.356 97.3V25.55a25.506 25.506 0 0151.01 0v244.168zM626.5 305.116v5.45a25.6 25.6 0 01-48.363 11.565L437.877 31.37v-5.82a25.273 25.273 0 0114.545-22.925 25.232 25.232 0 0134.05 11.892zm-379.823 31.02a84.591 84.591 0 0084.48-84.492V84.54a84.483 84.483 0 00-168.965 0v167.105a84.589 84.589 0 0084.485 84.492m0-285.064a33.965 33.965 0 0133.474 33.467v167.105a33.475 33.475 0 11-66.948 0V84.54a33.512 33.512 0 0133.474-33.467M0 307.93a27.819 27.819 0 1055.637 0V27.83A27.819 27.819 0 000 27.83z" fill="#003d8f"/></svg>