<?xml version="1.0" encoding="utf-8"?>
<!-- Generator: Adobe Illustrator 21.0.0, SVG Export Plug-In . SVG Version: 6.00 Build 0)  -->
<svg version="1.1" id="Layer_1" xmlns="http://www.w3.org/2000/svg" xmlns:xlink="http://www.w3.org/1999/xlink" x="0px" y="0px"
	 viewBox="0 0 91 113.8" style="enable-background:new 0 0 91 113.8;" xml:space="preserve">
<style type="text/css">
	.st0{fill:#FFFFFF;}
</style>
<g>
	<path class="st0" d="M73.5,61c-1.8-4.4-5.3-6.6-9.2-9c-4.2-2.6-8.2-5.5-12.1-8.6c-7.9-6.3-15.5-13.3-22-21.1
		c-2.8-3.3-7.5,1.5-4.7,4.7c0.3,0.4,0.6,0.7,0.9,1.1c-0.7,17,0.9,34.1,3.4,50.9c0.4,2.6,4.6,3.1,5.7,0.7c1.6-3.3,3.3-6.6,5.1-9.9
		c0.8-1.5,1.7-3,2.6-4.5c0.4-0.6,0.6-1.2,0.9-1.6c2.5,5.1,5.1,10,8,14.8c1.6,2.6,3.2,5.2,4.9,7.8c1.4,2.1,2.8,4.8,5,6.1
		c0.5,0.3,1.2-0.1,1.2-0.7c-0.3-2.5-1.8-4.6-2.9-6.7c-1.4-2.7-2.8-5.4-4.2-8.2c-2.3-4.7-4.4-9.5-6.5-14.3c7,0.6,13.9,1.5,20.8,2.2
		C72.4,65.1,74.3,62.7,73.5,61z M49.4,56.4c-2-0.2-4.3-0.8-6.3-0.2c-3.1,1-4.9,5.4-6.4,7.9c-0.7,1.3-1.5,2.6-2.2,3.9
		c-1.7-11.8-2.9-23.7-4.1-35.6c4.9,5.1,10.1,9.8,15.6,14.1c3.6,2.9,7.3,5.6,11.1,8.2c1.5,1,3.5,2,5.5,3.1c-2.1-0.2-4.2-0.5-6.3-0.7
		C54,56.9,51.7,56.7,49.4,56.4z"/>
</g>
</svg>
